<svg xmlns="http://www.w3.org/2000/svg" xmlns:xlink="http://www.w3.org/1999/xlink" viewBox="0 0 393.21 407.44"><defs><style>.cls-1{fill:none;}.cls-2{isolation:isolate;}.cls-3{fill:#d9a150;}.cls-11,.cls-4{opacity:0.5;}.cls-5{clip-path:url(#clip-path);}.cls-6{mix-blend-mode:soft-light;opacity:0.6;}.cls-7{fill:#e8e7e7;}.cls-8{fill:#8b5838;}.cls-9{fill:#7e4f31;}.cls-10{fill:#5e4944;}.cls-11,.cls-13{mix-blend-mode:multiply;}.cls-12{fill:#bbbdbf;}.cls-14{fill:#7a5536;}.cls-15{fill:#bf8b46;}</style><clipPath id="clip-path" transform="translate(-180.36 -165.51)"><path class="cls-1" d="M400.43,231.66a168.63,168.63,0,0,0-34.31,3.51,40.62,40.62,0,0,1-33,45,41.18,41.18,0,0,1,.86,8.37,40.66,40.66,0,0,1-40.66,40.66,41.44,41.44,0,0,1-7-.61A40.64,40.64,0,0,1,237,360.34,168.15,168.15,0,1,0,400.43,231.66Z"/></clipPath></defs><g class="cls-2"><g id="Object"><path class="cls-3" d="M400.43,231.66a168.63,168.63,0,0,0-34.31,3.51,40.62,40.62,0,0,1-33,45,41.18,41.18,0,0,1,.86,8.37,40.66,40.66,0,0,1-40.66,40.66,41.44,41.44,0,0,1-7-.61A40.64,40.64,0,0,1,237,360.34,168.15,168.15,0,1,0,400.43,231.66Z" transform="translate(-180.36 -165.51)"/><g class="cls-4"><g class="cls-5"><g class="cls-6"><circle class="cls-7" cx="127.15" cy="127.15" r="127.15"/></g></g></g><circle class="cls-8" cx="293.3" cy="405.22" r="23.84" transform="translate(-349.3 430.93) rotate(-76.58)"/><path class="cls-9" d="M305.73,384.87A23.84,23.84,0,0,1,273,417.65a23.84,23.84,0,1,0,32.78-32.78Z" transform="translate(-180.36 -165.51)"/><g class="cls-6"><path class="cls-7" d="M281.37,405.05a9.82,9.82,0,1,0,0-19.63,10.05,10.05,0,0,0-1.56.15,24,24,0,0,0-8.23,9.89A9.8,9.8,0,0,0,281.37,405.05Z" transform="translate(-180.36 -165.51)"/></g><circle class="cls-8" cx="314.39" cy="193.09" r="23.84"/><path class="cls-9" d="M507.19,338.25A23.85,23.85,0,0,1,474.4,371a23.85,23.85,0,1,0,32.79-32.78Z" transform="translate(-180.36 -165.51)"/><g class="cls-6"><path class="cls-7" d="M482.83,358.43a9.82,9.82,0,0,0,0-19.63,10.07,10.07,0,0,0-1.57.15,24,24,0,0,0-8.23,9.89A9.82,9.82,0,0,0,482.83,358.43Z" transform="translate(-180.36 -165.51)"/></g><circle class="cls-8" cx="380.47" cy="317.4" r="20.54" transform="translate(-196.22 449.27) rotate(-76.72)"/><path class="cls-9" d="M391.19,299.88A20.54,20.54,0,0,1,363,328.12a20.54,20.54,0,1,0,28.24-28.24Z" transform="translate(-180.36 -165.51)"/><g class="cls-6"><path class="cls-7" d="M370.21,317.26a8.46,8.46,0,1,0-1.35-16.78,20.64,20.64,0,0,0-7.09,8.52A8.44,8.44,0,0,0,370.21,317.26Z" transform="translate(-180.36 -165.51)"/></g><circle class="cls-8" cx="372.21" cy="509.73" r="20.54" transform="translate(-370.92 629.97) rotate(-80.78)"/><path class="cls-9" d="M382.92,492.2a20.54,20.54,0,0,1-28.24,28.24,20.54,20.54,0,1,0,28.24-28.24Z" transform="translate(-180.36 -165.51)"/><g class="cls-6"><path class="cls-7" d="M361.94,509.58a8.46,8.46,0,1,0,0-16.91,8.58,8.58,0,0,0-1.35.14,20.66,20.66,0,0,0-7.09,8.52A8.45,8.45,0,0,0,361.94,509.58Z" transform="translate(-180.36 -165.51)"/></g><circle class="cls-8" cx="234.58" cy="254.29" r="20.54"/><path class="cls-9" d="M425.65,402.28a20.54,20.54,0,0,1-28.23,28.24,20.54,20.54,0,1,0,28.23-28.24Z" transform="translate(-180.36 -165.51)"/><path class="cls-10" d="M293.3,381.37a23.85,23.85,0,1,1-23.85,23.85,23.85,23.85,0,0,1,23.85-23.85m0-10a33.85,33.85,0,1,0,33.84,33.85,33.89,33.89,0,0,0-33.84-33.85Z" transform="translate(-180.36 -165.51)"/><path class="cls-10" d="M494.75,334.75a23.85,23.85,0,1,1-23.84,23.85,23.84,23.84,0,0,1,23.84-23.85m0-10a33.85,33.85,0,1,0,33.84,33.85,33.88,33.88,0,0,0-33.84-33.85Z" transform="translate(-180.36 -165.51)"/><path class="cls-10" d="M380.47,296.86a20.54,20.54,0,1,1-20.53,20.54,20.54,20.54,0,0,1,20.53-20.54m0-10A30.54,30.54,0,1,0,411,317.4a30.57,30.57,0,0,0-30.54-30.54Z" transform="translate(-180.36 -165.51)"/><path class="cls-10" d="M372.21,489.19a20.54,20.54,0,1,1-20.54,20.54,20.54,20.54,0,0,1,20.54-20.54m0-10a30.54,30.54,0,1,0,30.54,30.54,30.57,30.57,0,0,0-30.54-30.54Z" transform="translate(-180.36 -165.51)"/><path class="cls-10" d="M414.94,399.26A20.54,20.54,0,1,1,394.4,419.8a20.55,20.55,0,0,1,20.54-20.54m0-10a30.54,30.54,0,1,0,30.54,30.54,30.57,30.57,0,0,0-30.54-30.54Z" transform="translate(-180.36 -165.51)"/><g class="cls-6"><path class="cls-7" d="M404.67,419.66a8.46,8.46,0,1,0,0-16.91,8.69,8.69,0,0,0-1.35.13,20.63,20.63,0,0,0-7.08,8.52A8.44,8.44,0,0,0,404.67,419.66Z" transform="translate(-180.36 -165.51)"/></g><g class="cls-11"><path class="cls-12" d="M503.94,267.3a168.14,168.14,0,0,1-236,236,168.14,168.14,0,1,0,236-236Z" transform="translate(-180.36 -165.51)"/></g><g class="cls-13"><path class="cls-12" d="M294.44,472.24a4.15,4.15,0,1,1-4.15-4.15A4.15,4.15,0,0,1,294.44,472.24Z" transform="translate(-180.36 -165.51)"/><path class="cls-12" d="M329,508.68a4.15,4.15,0,1,1-4.15-4.15A4.15,4.15,0,0,1,329,508.68Z" transform="translate(-180.36 -165.51)"/><path class="cls-12" d="M425,466.89a4.15,4.15,0,1,1-4.15-4.15A4.14,4.14,0,0,1,425,466.89Z" transform="translate(-180.36 -165.51)"/><path class="cls-12" d="M454.75,488.82a4.15,4.15,0,1,1-4.15-4.15A4.15,4.15,0,0,1,454.75,488.82Z" transform="translate(-180.36 -165.51)"/><path class="cls-12" d="M427.43,508.83a4.15,4.15,0,1,1-4.15-4.15A4.15,4.15,0,0,1,427.43,508.83Z" transform="translate(-180.36 -165.51)"/><path class="cls-12" d="M484.75,416.72a4.15,4.15,0,1,1-4.15-4.15A4.15,4.15,0,0,1,484.75,416.72Z" transform="translate(-180.36 -165.51)"/><path class="cls-12" d="M487.27,287.61a4.15,4.15,0,1,1-4.15-4.15A4.15,4.15,0,0,1,487.27,287.61Z" transform="translate(-180.36 -165.51)"/><path class="cls-12" d="M526.35,320.78a4.15,4.15,0,1,1-4.15-4.15A4.15,4.15,0,0,1,526.35,320.78Z" transform="translate(-180.36 -165.51)"/><path class="cls-12" d="M450.6,394.75a4.15,4.15,0,1,1-4.15-4.15A4.15,4.15,0,0,1,450.6,394.75Z" transform="translate(-180.36 -165.51)"/><path class="cls-12" d="M360.77,374.47a4.16,4.16,0,1,1-4.16-4.15A4.15,4.15,0,0,1,360.77,374.47Z" transform="translate(-180.36 -165.51)"/><path class="cls-12" d="M425.43,279.91a4.15,4.15,0,1,1-4.15-4.15A4.15,4.15,0,0,1,425.43,279.91Z" transform="translate(-180.36 -165.51)"/><path class="cls-12" d="M377,462.74a4.15,4.15,0,1,1-4.15-4.15A4.15,4.15,0,0,1,377,462.74Z" transform="translate(-180.36 -165.51)"/><path class="cls-12" d="M517.15,407.08a4.15,4.15,0,1,1-4.15-4.15A4.15,4.15,0,0,1,517.15,407.08Z" transform="translate(-180.36 -165.51)"/></g><path class="cls-14" d="M295.34,473.14a4.15,4.15,0,1,1-4.15-4.15A4.15,4.15,0,0,1,295.34,473.14Z" transform="translate(-180.36 -165.51)"/><path class="cls-14" d="M329.91,509.58a4.15,4.15,0,1,1-4.15-4.15A4.15,4.15,0,0,1,329.91,509.58Z" transform="translate(-180.36 -165.51)"/><path class="cls-14" d="M425.91,467.79a4.15,4.15,0,1,1-4.15-4.15A4.14,4.14,0,0,1,425.91,467.79Z" transform="translate(-180.36 -165.51)"/><path class="cls-14" d="M455.65,489.72a4.15,4.15,0,1,1-4.15-4.15A4.15,4.15,0,0,1,455.65,489.72Z" transform="translate(-180.36 -165.51)"/><path class="cls-14" d="M428.33,509.73a4.15,4.15,0,1,1-4.15-4.15A4.15,4.15,0,0,1,428.33,509.73Z" transform="translate(-180.36 -165.51)"/><path class="cls-14" d="M485.65,417.62a4.15,4.15,0,1,1-4.15-4.15A4.15,4.15,0,0,1,485.65,417.62Z" transform="translate(-180.36 -165.51)"/><path class="cls-14" d="M488.17,288.51a4.15,4.15,0,1,1-4.15-4.15A4.15,4.15,0,0,1,488.17,288.51Z" transform="translate(-180.36 -165.51)"/><path class="cls-14" d="M527.25,321.68a4.15,4.15,0,1,1-4.15-4.15A4.15,4.15,0,0,1,527.25,321.68Z" transform="translate(-180.36 -165.51)"/><path class="cls-14" d="M451.5,395.65a4.15,4.15,0,1,1-4.15-4.15A4.15,4.15,0,0,1,451.5,395.65Z" transform="translate(-180.36 -165.51)"/><path class="cls-14" d="M361.67,375.37a4.16,4.16,0,1,1-4.16-4.15A4.15,4.15,0,0,1,361.67,375.37Z" transform="translate(-180.36 -165.51)"/><path class="cls-14" d="M426.33,280.81a4.15,4.15,0,1,1-4.15-4.15A4.15,4.15,0,0,1,426.33,280.81Z" transform="translate(-180.36 -165.51)"/><path class="cls-14" d="M377.87,463.64a4.15,4.15,0,1,1-4.15-4.15A4.15,4.15,0,0,1,377.87,463.64Z" transform="translate(-180.36 -165.51)"/><path class="cls-14" d="M518.05,408a4.15,4.15,0,1,1-4.15-4.15A4.15,4.15,0,0,1,518.05,408Z" transform="translate(-180.36 -165.51)"/><path class="cls-15" d="M267.36,383.5a24,24,0,0,1,4.22-4.21A33.74,33.74,0,0,1,313.4,378a33.83,33.83,0,1,0-47.31,47.31,33.76,33.76,0,0,1,1.27-41.82Z" transform="translate(-180.36 -165.51)"/><path class="cls-15" d="M467.54,378.7a33.78,33.78,0,0,1,1.28-41.82,23.63,23.63,0,0,1,4.21-4.21,33.76,33.76,0,0,1,41.83-1.28,33.83,33.83,0,1,0-47.32,47.31Z" transform="translate(-180.36 -165.51)"/><path class="cls-15" d="M355.64,335.14a30.45,30.45,0,0,1,1.62-37.54,20.37,20.37,0,0,1,3.41-3.41,30.41,30.41,0,0,1,37.54-1.62,30.52,30.52,0,1,0-42.57,42.57Z" transform="translate(-180.36 -165.51)"/><path class="cls-15" d="M349,489.92a20.76,20.76,0,0,1,3.41-3.41A30.46,30.46,0,0,1,390,484.89a30.52,30.52,0,1,0-42.58,42.57A30.45,30.45,0,0,1,349,489.92Z" transform="translate(-180.36 -165.51)"/><path class="cls-15" d="M471.06,446a20.7,20.7,0,0,1,3.41-3.4A30.41,30.41,0,0,1,512,441a30.52,30.52,0,1,0-42.57,42.57A30.46,30.46,0,0,1,471.06,446Z" transform="translate(-180.36 -165.51)"/><path class="cls-15" d="M391.73,400a20.7,20.7,0,0,1,3.4-3.41A30.42,30.42,0,0,1,432.68,395a30.52,30.52,0,1,0-42.57,42.57A30.41,30.41,0,0,1,391.73,400Z" transform="translate(-180.36 -165.51)"/><circle class="cls-8" cx="313.91" cy="300.29" r="20.54"/><path class="cls-9" d="M505,448.28a20.54,20.54,0,0,1-28.24,28.24A20.54,20.54,0,1,0,505,448.28Z" transform="translate(-180.36 -165.51)"/><g class="cls-6"><path class="cls-7" d="M484,465.66a8.46,8.46,0,1,0-1.35-16.78,20.57,20.57,0,0,0-7.09,8.52A8.45,8.45,0,0,0,484,465.66Z" transform="translate(-180.36 -165.51)"/></g><path class="cls-10" d="M494.27,445.26a20.54,20.54,0,1,1-20.53,20.54,20.54,20.54,0,0,1,20.53-20.54m0-10a30.54,30.54,0,1,0,30.54,30.54,30.57,30.57,0,0,0-30.54-30.54Z" transform="translate(-180.36 -165.51)"/><circle class="cls-3" cx="278.72" cy="283.46" r="12.47" transform="translate(-233.28 337.15) rotate(-78.95)"/><path class="cls-10" d="M278.72,271a12.47,12.47,0,1,1-12.47,12.47A12.47,12.47,0,0,1,278.72,271m0-10a22.47,22.47,0,1,0,22.47,22.47A22.5,22.5,0,0,0,278.72,261Z" transform="translate(-180.36 -165.51)"/><circle class="cls-3" cx="114.68" cy="61.79" r="8.18"/><path class="cls-10" d="M295.05,219.11a8.19,8.19,0,1,1-8.19,8.19,8.19,8.19,0,0,1,8.19-8.19m0-10a18.19,18.19,0,1,0,18.18,18.19,18.21,18.21,0,0,0-18.18-18.19Z" transform="translate(-180.36 -165.51)"/><circle class="cls-3" cx="40.51" cy="159.42" r="8.18"/><path class="cls-10" d="M220.88,316.75a8.19,8.19,0,1,1-8.19,8.18,8.18,8.18,0,0,1,8.19-8.18m0-10a18.19,18.19,0,1,0,18.18,18.18,18.21,18.21,0,0,0-18.18-18.18Z" transform="translate(-180.36 -165.51)"/><path class="cls-15" d="M285.3,272.88A12.45,12.45,0,0,1,268.14,290a12.46,12.46,0,1,0,17.16-17.15Z" transform="translate(-180.36 -165.51)"/><path class="cls-15" d="M298.47,219.87a8.17,8.17,0,0,1-10.85,10.85,8.18,8.18,0,1,0,10.85-10.85Z" transform="translate(-180.36 -165.51)"/><path class="cls-15" d="M224.3,317.51a8,8,0,0,1,.76,3.42,8.17,8.17,0,0,1-11.61,7.43,8.18,8.18,0,1,0,10.85-10.85Z" transform="translate(-180.36 -165.51)"/><path class="cls-10" d="M400.43,573a173,173,0,0,1-152.9-91.83,5,5,0,0,1,8.83-4.7A163,163,0,0,0,400.43,563c90,0,163.14-73.19,163.14-163.14S490.39,236.66,400.43,236.66a164.7,164.7,0,0,0-29,2.58c0,.3,0,.6,0,.9a45.62,45.62,0,0,1-32.7,43.79,43.76,43.76,0,0,1,.23,4.58,45.71,45.71,0,0,1-45.66,45.66c-1.07,0-2.15,0-3.23-.12a45.59,45.59,0,0,1-49.28,32.05,164.14,164.14,0,0,0,2.45,77.51,5,5,0,1,1-9.64,2.68,174.23,174.23,0,0,1-1.5-87.12,5,5,0,0,1,6-3.69,36.13,36.13,0,0,0,8.26,1,35.7,35.7,0,0,0,35-28.84,5,5,0,0,1,5.76-4A35.64,35.64,0,0,0,329,288.51a35.54,35.54,0,0,0-.76-7.35,5,5,0,0,1,4-5.94,35.63,35.63,0,0,0,29.23-35.08,34.87,34.87,0,0,0-.28-4.36,5,5,0,0,1,4-5.5,174.18,174.18,0,0,1,35.33-3.62c95.47,0,173.14,77.67,173.14,173.15S495.9,573,400.43,573Z" transform="translate(-180.36 -165.51)"/><path class="cls-10" d="M244.84,468.65a5,5,0,0,1-4.63-3.1c-.39-.94-.77-1.89-1.14-2.84a5,5,0,0,1,9.32-3.64c.35.9.7,1.79,1.07,2.68a5,5,0,0,1-4.62,6.9Z" transform="translate(-180.36 -165.51)"/></g></g></svg>