<svg xmlns="http://www.w3.org/2000/svg" width="20.026" height="20" viewBox="0 0 20.026 20">
  <path id="shopping-basket" d="M19.414,7.528a2.5,2.5,0,0,0-1.889-.862h-.072a7.5,7.5,0,0,0-14.907,0H2.5A2.5,2.5,0,0,0,.025,9.521l.884,6.187A5.025,5.025,0,0,0,5.859,20h8.307a5.026,5.026,0,0,0,4.95-4.293L20,9.521a2.5,2.5,0,0,0-.587-1.992ZM10,1.667a5.843,5.843,0,0,1,5.773,5H4.227A5.843,5.843,0,0,1,10,1.667Zm8.351,7.618-.884,6.187a3.35,3.35,0,0,1-3.3,2.863H5.859a3.349,3.349,0,0,1-3.3-2.863L1.675,9.285A.833.833,0,0,1,2.5,8.333H17.525a.833.833,0,0,1,.825.952Zm-7.517,1.548v5a.833.833,0,1,1-1.667,0v-5a.833.833,0,1,1,1.667,0Zm4.167,0v5a.833.833,0,1,1-1.667,0v-5a.833.833,0,1,1,1.667,0Zm-8.333,0v5a.833.833,0,1,1-1.667,0v-5a.833.833,0,1,1,1.667,0Z" transform="translate(0)" fill="#324f57"/>
</svg>
