<svg xmlns="http://www.w3.org/2000/svg" width="15.273" height="14" viewBox="0 0 15.273 14">
  <path id="envelope" d="M11.773,1H3.5A3.5,3.5,0,0,0,0,4.5v7A3.5,3.5,0,0,0,3.5,15h8.273a3.5,3.5,0,0,0,3.5-3.5v-7A3.5,3.5,0,0,0,11.773,1Zm0,1.909a1.576,1.576,0,0,1,1.046.4L8.682,7.447a1.51,1.51,0,0,1-2.086,0L2.46,3.311a1.576,1.576,0,0,1,1.04-.4Zm0,10.182H3.5A1.591,1.591,0,0,1,1.909,11.5V5.465L5.243,8.8a3.384,3.384,0,0,0,4.786,0l3.335-3.334V11.5A1.591,1.591,0,0,1,11.773,13.091Z" transform="translate(0 -1)" fill="#fff" opacity="0.5"/>
</svg>
